<!--?xml version="1.0" standalone="no"?-->
              <svg id="sw-js-blob-svg" viewBox="0 0 100 100" xmlns="http://www.w3.org/2000/svg" version="1.1">
                    <defs> 
                        <linearGradient id="sw-gradient" x1="0" x2="1" y1="1" y2="0">
                            <stop id="stop1" stop-color="rgba(91, 33, 182, 1)" offset="0%"></stop>
                            <stop id="stop2" stop-color="rgba(167, 139, 250, 1)" offset="100%"></stop>
                        </linearGradient>
                    </defs>
                <path fill="url(#sw-gradient)" d="M24,-30.1C29,-24.4,29.4,-14.8,30,-6.1C30.7,2.7,31.4,10.7,29.2,18.9C26.9,27.2,21.5,35.9,13.9,38.9C6.3,41.9,-3.5,39.3,-13.2,35.9C-22.9,32.6,-32.5,28.4,-37.5,21C-42.6,13.6,-43.2,2.9,-40,-5.7C-36.9,-14.4,-30,-21,-22.8,-26.2C-15.5,-31.5,-7.7,-35.3,0.9,-36.4C9.5,-37.5,19,-35.7,24,-30.1Z" width="100%" height="100%" transform="translate(50 50)" stroke-width="0" style="transition: all 0.3s ease 0s;"></path>
              </svg>