<svg xmlns="http://www.w3.org/2000/svg" version="1.1" xmlns:xlink="http://www.w3.org/1999/xlink" xmlns:svgjs="http://svgjs.dev/svgjs" width="1440" height="560" preserveAspectRatio="none" viewBox="0 0 1440 560"><g mask="url(&quot;#SvgjsMask1032&quot;)" fill="none"><path d="M626.43-73.94C541.61-69.15 576.36 73.49 326.02 84.95 75.68 96.41-109.21 358.19-274.79 364.95" stroke="rgba(91, 33, 182, 1)" stroke-width="2"></path><path d="M638.34-80.86C477.94-25.78 444.77 438.41 211.84 446.65-21.09 454.89-101.55 297.67-214.66 295.45" stroke="rgba(91, 33, 182, 1)" stroke-width="2"></path><path d="M978.62-67.3C810.45-59.14 704.83 221.42 375.8 232.94 46.77 244.46-65.8 458.7-227.02 462.54" stroke="rgba(91, 33, 182, 1)" stroke-width="2"></path><path d="M928.25-30.62C789.98-17.47 700.25 272.96 463.5 273.8 226.74 274.64 118.94 151.64-1.26 150.6" stroke="rgba(91, 33, 182, 1)" stroke-width="2"></path><path d="M855.91-25.83C741.1 2.44 800.56 300.64 525.92 312.99 251.28 325.34 34.61 452.22-134.05 452.99" stroke="rgba(91, 33, 182, 1)" stroke-width="2"></path></g><defs><mask id="SvgjsMask1032"><rect width="1440" height="560" fill="#ffffff"></rect></mask></defs></svg>