<?xml version="1.0" standalone="no"?>
<svg xmlns:xlink="http://www.w3.org/1999/xlink" id="wave" style="transform:rotate(0deg); transition: 0.3s" viewBox="0 0 1440 350" version="1.1" xmlns="http://www.w3.org/2000/svg"><defs><linearGradient id="sw-gradient-0" x1="0" x2="0" y1="1" y2="0"><stop stop-color="rgba(2, 6, 23, 1)" offset="0%"/><stop stop-color="rgba(91, 33, 182, 1)" offset="100%"/></linearGradient></defs><path style="transform:translate(0, 0px); opacity:1" fill="url(#sw-gradient-0)" d="M0,35L60,40.8C120,47,240,58,360,87.5C480,117,600,163,720,198.3C840,233,960,257,1080,221.7C1200,187,1320,93,1440,70C1560,47,1680,93,1800,105C1920,117,2040,93,2160,99.2C2280,105,2400,140,2520,175C2640,210,2760,245,2880,227.5C3000,210,3120,140,3240,110.8C3360,82,3480,93,3600,87.5C3720,82,3840,58,3960,52.5C4080,47,4200,58,4320,87.5C4440,117,4560,163,4680,151.7C4800,140,4920,70,5040,81.7C5160,93,5280,187,5400,227.5C5520,268,5640,257,5760,256.7C5880,257,6000,268,6120,245C6240,222,6360,163,6480,128.3C6600,93,6720,82,6840,105C6960,128,7080,187,7200,204.2C7320,222,7440,198,7560,163.3C7680,128,7800,82,7920,99.2C8040,117,8160,198,8280,239.2C8400,280,8520,280,8580,280L8640,280L8640,350L8580,350C8520,350,8400,350,8280,350C8160,350,8040,350,7920,350C7800,350,7680,350,7560,350C7440,350,7320,350,7200,350C7080,350,6960,350,6840,350C6720,350,6600,350,6480,350C6360,350,6240,350,6120,350C6000,350,5880,350,5760,350C5640,350,5520,350,5400,350C5280,350,5160,350,5040,350C4920,350,4800,350,4680,350C4560,350,4440,350,4320,350C4200,350,4080,350,3960,350C3840,350,3720,350,3600,350C3480,350,3360,350,3240,350C3120,350,3000,350,2880,350C2760,350,2640,350,2520,350C2400,350,2280,350,2160,350C2040,350,1920,350,1800,350C1680,350,1560,350,1440,350C1320,350,1200,350,1080,350C960,350,840,350,720,350C600,350,480,350,360,350C240,350,120,350,60,350L0,350Z"/><defs><linearGradient id="sw-gradient-1" x1="0" x2="0" y1="1" y2="0"><stop stop-color="rgba(88.905, 31.792, 218.927, 1)" offset="0%"/><stop stop-color="rgba(91, 33, 182, 1)" offset="100%"/></linearGradient></defs><path style="transform:translate(0, 50px); opacity:0.9" fill="url(#sw-gradient-1)" d="M0,105L60,122.5C120,140,240,175,360,198.3C480,222,600,233,720,233.3C840,233,960,222,1080,227.5C1200,233,1320,257,1440,245C1560,233,1680,187,1800,163.3C1920,140,2040,140,2160,145.8C2280,152,2400,163,2520,145.8C2640,128,2760,82,2880,58.3C3000,35,3120,35,3240,29.2C3360,23,3480,12,3600,5.8C3720,0,3840,0,3960,0C4080,0,4200,0,4320,40.8C4440,82,4560,163,4680,175C4800,187,4920,128,5040,110.8C5160,93,5280,117,5400,110.8C5520,105,5640,70,5760,52.5C5880,35,6000,35,6120,46.7C6240,58,6360,82,6480,99.2C6600,117,6720,128,6840,128.3C6960,128,7080,117,7200,134.2C7320,152,7440,198,7560,180.8C7680,163,7800,82,7920,64.2C8040,47,8160,93,8280,110.8C8400,128,8520,117,8580,110.8L8640,105L8640,350L8580,350C8520,350,8400,350,8280,350C8160,350,8040,350,7920,350C7800,350,7680,350,7560,350C7440,350,7320,350,7200,350C7080,350,6960,350,6840,350C6720,350,6600,350,6480,350C6360,350,6240,350,6120,350C6000,350,5880,350,5760,350C5640,350,5520,350,5400,350C5280,350,5160,350,5040,350C4920,350,4800,350,4680,350C4560,350,4440,350,4320,350C4200,350,4080,350,3960,350C3840,350,3720,350,3600,350C3480,350,3360,350,3240,350C3120,350,3000,350,2880,350C2760,350,2640,350,2520,350C2400,350,2280,350,2160,350C2040,350,1920,350,1800,350C1680,350,1560,350,1440,350C1320,350,1200,350,1080,350C960,350,840,350,720,350C600,350,480,350,360,350C240,350,120,350,60,350L0,350Z"/><defs><linearGradient id="sw-gradient-2" x1="0" x2="0" y1="1" y2="0"><stop stop-color="rgba(91, 33, 182, 1)" offset="0%"/><stop stop-color="rgba(2, 6, 23, 1)" offset="100%"/></linearGradient></defs><path style="transform:translate(0, 100px); opacity:0.8" fill="url(#sw-gradient-2)" d="M0,175L60,157.5C120,140,240,105,360,93.3C480,82,600,93,720,99.2C840,105,960,105,1080,87.5C1200,70,1320,35,1440,29.2C1560,23,1680,47,1800,46.7C1920,47,2040,23,2160,52.5C2280,82,2400,163,2520,163.3C2640,163,2760,82,2880,64.2C3000,47,3120,93,3240,140C3360,187,3480,233,3600,221.7C3720,210,3840,140,3960,140C4080,140,4200,210,4320,210C4440,210,4560,140,4680,93.3C4800,47,4920,23,5040,64.2C5160,105,5280,210,5400,233.3C5520,257,5640,198,5760,151.7C5880,105,6000,70,6120,70C6240,70,6360,105,6480,151.7C6600,198,6720,257,6840,256.7C6960,257,7080,198,7200,163.3C7320,128,7440,117,7560,128.3C7680,140,7800,175,7920,186.7C8040,198,8160,187,8280,192.5C8400,198,8520,222,8580,233.3L8640,245L8640,350L8580,350C8520,350,8400,350,8280,350C8160,350,8040,350,7920,350C7800,350,7680,350,7560,350C7440,350,7320,350,7200,350C7080,350,6960,350,6840,350C6720,350,6600,350,6480,350C6360,350,6240,350,6120,350C6000,350,5880,350,5760,350C5640,350,5520,350,5400,350C5280,350,5160,350,5040,350C4920,350,4800,350,4680,350C4560,350,4440,350,4320,350C4200,350,4080,350,3960,350C3840,350,3720,350,3600,350C3480,350,3360,350,3240,350C3120,350,3000,350,2880,350C2760,350,2640,350,2520,350C2400,350,2280,350,2160,350C2040,350,1920,350,1800,350C1680,350,1560,350,1440,350C1320,350,1200,350,1080,350C960,350,840,350,720,350C600,350,480,350,360,350C240,350,120,350,60,350L0,350Z"/></svg>