<svg xmlns="http://www.w3.org/2000/svg" version="1.1" xmlns:xlink="http://www.w3.org/1999/xlink" xmlns:svgjs="http://svgjs.dev/svgjs" width="1080" height="600" preserveAspectRatio="none" viewBox="0 0 1080 600"><g mask="url(&quot;#SvgjsMask1077&quot;)" fill="none"><path d="M26.29 377.29L150.14 448.79L150.14 591.79L26.29 663.29L-97.56 591.79L-97.56 448.79zM645.52 591.79L769.36 663.29L769.36 806.29L645.52 877.79L521.67 806.29L521.67 663.29zM1017.05 -51.71L1140.9 19.79L1140.9 162.79L1017.05 234.29L893.21 162.79L893.21 19.79z" stroke="rgba(91, 33, 182, 1)" stroke-width="2"></path><path d="M9 -88.25L110.33 -29.75L110.33 87.25L9 145.75L-92.33 87.25L-92.33 -29.75zM110.33 87.25L211.66 145.75L211.66 262.75L110.33 321.25L9 262.75L9 145.75zM9 262.75L110.33 321.25L110.33 438.25L9 496.75L-92.33 438.25L-92.33 321.25zM110.33 438.25L211.66 496.75L211.66 613.75L110.33 672.25L9 613.75L9 496.75zM211.66 262.75L312.98 321.25L312.98 438.25L211.66 496.75L110.33 438.25L110.33 321.25zM414.31 -88.25L515.64 -29.75L515.64 87.25L414.31 145.75L312.98 87.25L312.98 -29.75zM414.31 262.75L515.64 321.25L515.64 438.25L414.31 496.75L312.98 438.25L312.98 321.25zM718.29 438.25L819.62 496.75L819.62 613.75L718.29 672.25L616.97 613.75L616.97 496.75zM819.62 -88.25L920.95 -29.75L920.95 87.25L819.62 145.75L718.29 87.25L718.29 -29.75zM920.95 87.25L1022.28 145.75L1022.28 262.75L920.95 321.25L819.62 262.75L819.62 145.75zM819.62 262.75L920.95 321.25L920.95 438.25L819.62 496.75L718.29 438.25L718.29 321.25zM920.95 438.25L1022.28 496.75L1022.28 613.75L920.95 672.25L819.62 613.75L819.62 496.75z" stroke="rgba(91, 33, 182, 1)" stroke-width="2"></path></g><defs><mask id="SvgjsMask1077"><rect width="1080" height="600" fill="#ffffff"></rect></mask></defs></svg>