<?xml version="1.0" standalone="no"?>
<svg xmlns:xlink="http://www.w3.org/1999/xlink" id="wave" style="transform:rotate(180deg); transition: 0.3s" viewBox="0 0 1440 240" version="1.1" xmlns="http://www.w3.org/2000/svg"><defs><linearGradient id="sw-gradient-0" x1="0" x2="0" y1="1" y2="0"><stop stop-color="rgba(167, 139, 250, 1)" offset="0%"/><stop stop-color="rgba(91, 33, 182, 1)" offset="100%"/></linearGradient></defs><path style="transform:translate(0, 0px); opacity:1" fill="url(#sw-gradient-0)" d="M0,216L48,196C96,176,192,136,288,116C384,96,480,96,576,116C672,136,768,176,864,192C960,208,1056,200,1152,184C1248,168,1344,144,1440,112C1536,80,1632,40,1728,32C1824,24,1920,48,2016,76C2112,104,2208,136,2304,128C2400,120,2496,72,2592,56C2688,40,2784,56,2880,80C2976,104,3072,136,3168,132C3264,128,3360,88,3456,84C3552,80,3648,112,3744,104C3840,96,3936,48,4032,28C4128,8,4224,16,4320,36C4416,56,4512,88,4608,92C4704,96,4800,72,4896,64C4992,56,5088,64,5184,84C5280,104,5376,136,5472,132C5568,128,5664,88,5760,64C5856,40,5952,32,6048,48C6144,64,6240,104,6336,104C6432,104,6528,64,6624,48C6720,32,6816,40,6864,44L6912,48L6912,240L6864,240C6816,240,6720,240,6624,240C6528,240,6432,240,6336,240C6240,240,6144,240,6048,240C5952,240,5856,240,5760,240C5664,240,5568,240,5472,240C5376,240,5280,240,5184,240C5088,240,4992,240,4896,240C4800,240,4704,240,4608,240C4512,240,4416,240,4320,240C4224,240,4128,240,4032,240C3936,240,3840,240,3744,240C3648,240,3552,240,3456,240C3360,240,3264,240,3168,240C3072,240,2976,240,2880,240C2784,240,2688,240,2592,240C2496,240,2400,240,2304,240C2208,240,2112,240,2016,240C1920,240,1824,240,1728,240C1632,240,1536,240,1440,240C1344,240,1248,240,1152,240C1056,240,960,240,864,240C768,240,672,240,576,240C480,240,384,240,288,240C192,240,96,240,48,240L0,240Z"/><defs><linearGradient id="sw-gradient-1" x1="0" x2="0" y1="1" y2="0"><stop stop-color="rgba(167, 139, 250, 1)" offset="0%"/><stop stop-color="rgba(91, 33, 182, 1)" offset="100%"/></linearGradient></defs><path style="transform:translate(0, 50px); opacity:0.9" fill="url(#sw-gradient-1)" d="M0,120L48,132C96,144,192,168,288,148C384,128,480,64,576,36C672,8,768,16,864,24C960,32,1056,40,1152,40C1248,40,1344,32,1440,52C1536,72,1632,120,1728,152C1824,184,1920,200,2016,200C2112,200,2208,184,2304,184C2400,184,2496,200,2592,208C2688,216,2784,216,2880,216C2976,216,3072,216,3168,192C3264,168,3360,120,3456,84C3552,48,3648,24,3744,20C3840,16,3936,32,4032,48C4128,64,4224,80,4320,92C4416,104,4512,112,4608,96C4704,80,4800,40,4896,52C4992,64,5088,128,5184,160C5280,192,5376,192,5472,176C5568,160,5664,128,5760,96C5856,64,5952,32,6048,48C6144,64,6240,128,6336,136C6432,144,6528,96,6624,64C6720,32,6816,16,6864,8L6912,0L6912,240L6864,240C6816,240,6720,240,6624,240C6528,240,6432,240,6336,240C6240,240,6144,240,6048,240C5952,240,5856,240,5760,240C5664,240,5568,240,5472,240C5376,240,5280,240,5184,240C5088,240,4992,240,4896,240C4800,240,4704,240,4608,240C4512,240,4416,240,4320,240C4224,240,4128,240,4032,240C3936,240,3840,240,3744,240C3648,240,3552,240,3456,240C3360,240,3264,240,3168,240C3072,240,2976,240,2880,240C2784,240,2688,240,2592,240C2496,240,2400,240,2304,240C2208,240,2112,240,2016,240C1920,240,1824,240,1728,240C1632,240,1536,240,1440,240C1344,240,1248,240,1152,240C1056,240,960,240,864,240C768,240,672,240,576,240C480,240,384,240,288,240C192,240,96,240,48,240L0,240Z"/></svg>