<?xml version="1.0" standalone="no"?>
<svg xmlns:xlink="http://www.w3.org/1999/xlink" id="wave" style="transform:rotate(180deg); transition: 0.3s" viewBox="0 0 1440 450" version="1.1" xmlns="http://www.w3.org/2000/svg"><defs><linearGradient id="sw-gradient-0" x1="0" x2="0" y1="1" y2="0"><stop stop-color="rgba(167, 139, 250, 1)" offset="0%"/><stop stop-color="rgba(91, 33, 182, 1)" offset="100%"/></linearGradient></defs><path style="transform:translate(0, 0px); opacity:1" fill="url(#sw-gradient-0)" d="M0,0L60,0C120,0,240,0,360,52.5C480,105,600,210,720,255C840,300,960,285,1080,247.5C1200,210,1320,150,1440,112.5C1560,75,1680,60,1800,112.5C1920,165,2040,285,2160,300C2280,315,2400,225,2520,195C2640,165,2760,195,2880,240C3000,285,3120,345,3240,330C3360,315,3480,225,3600,202.5C3720,180,3840,225,3960,225C4080,225,4200,180,4320,195C4440,210,4560,285,4680,285C4800,285,4920,210,5040,150C5160,90,5280,45,5400,67.5C5520,90,5640,180,5760,247.5C5880,315,6000,360,6120,322.5C6240,285,6360,165,6480,165C6600,165,6720,285,6840,322.5C6960,360,7080,315,7200,300C7320,285,7440,300,7560,262.5C7680,225,7800,135,7920,112.5C8040,90,8160,135,8280,172.5C8400,210,8520,240,8580,255L8640,270L8640,450L8580,450C8520,450,8400,450,8280,450C8160,450,8040,450,7920,450C7800,450,7680,450,7560,450C7440,450,7320,450,7200,450C7080,450,6960,450,6840,450C6720,450,6600,450,6480,450C6360,450,6240,450,6120,450C6000,450,5880,450,5760,450C5640,450,5520,450,5400,450C5280,450,5160,450,5040,450C4920,450,4800,450,4680,450C4560,450,4440,450,4320,450C4200,450,4080,450,3960,450C3840,450,3720,450,3600,450C3480,450,3360,450,3240,450C3120,450,3000,450,2880,450C2760,450,2640,450,2520,450C2400,450,2280,450,2160,450C2040,450,1920,450,1800,450C1680,450,1560,450,1440,450C1320,450,1200,450,1080,450C960,450,840,450,720,450C600,450,480,450,360,450C240,450,120,450,60,450L0,450Z"/><defs><linearGradient id="sw-gradient-1" x1="0" x2="0" y1="1" y2="0"><stop stop-color="rgba(167, 139, 250, 1)" offset="0%"/><stop stop-color="rgba(91, 33, 182, 1)" offset="100%"/></linearGradient></defs><path style="transform:translate(0, 50px); opacity:0.9" fill="url(#sw-gradient-1)" d="M0,360L60,337.5C120,315,240,270,360,232.5C480,195,600,165,720,127.5C840,90,960,45,1080,37.5C1200,30,1320,60,1440,112.5C1560,165,1680,240,1800,285C1920,330,2040,345,2160,292.5C2280,240,2400,120,2520,90C2640,60,2760,120,2880,180C3000,240,3120,300,3240,300C3360,300,3480,240,3600,240C3720,240,3840,300,3960,292.5C4080,285,4200,210,4320,165C4440,120,4560,105,4680,90C4800,75,4920,60,5040,97.5C5160,135,5280,225,5400,262.5C5520,300,5640,285,5760,262.5C5880,240,6000,210,6120,232.5C6240,255,6360,330,6480,352.5C6600,375,6720,345,6840,337.5C6960,330,7080,345,7200,330C7320,315,7440,270,7560,270C7680,270,7800,315,7920,322.5C8040,330,8160,300,8280,277.5C8400,255,8520,240,8580,232.5L8640,225L8640,450L8580,450C8520,450,8400,450,8280,450C8160,450,8040,450,7920,450C7800,450,7680,450,7560,450C7440,450,7320,450,7200,450C7080,450,6960,450,6840,450C6720,450,6600,450,6480,450C6360,450,6240,450,6120,450C6000,450,5880,450,5760,450C5640,450,5520,450,5400,450C5280,450,5160,450,5040,450C4920,450,4800,450,4680,450C4560,450,4440,450,4320,450C4200,450,4080,450,3960,450C3840,450,3720,450,3600,450C3480,450,3360,450,3240,450C3120,450,3000,450,2880,450C2760,450,2640,450,2520,450C2400,450,2280,450,2160,450C2040,450,1920,450,1800,450C1680,450,1560,450,1440,450C1320,450,1200,450,1080,450C960,450,840,450,720,450C600,450,480,450,360,450C240,450,120,450,60,450L0,450Z"/></svg>